<?xml version="1.0" standalone="no"?>
<!DOCTYPE svg PUBLIC "-//W3C//DTD SVG 20010904//EN"
 "http://www.w3.org/TR/2001/REC-SVG-20010904/DTD/svg10.dtd">
<svg version="1.0" xmlns="http://www.w3.org/2000/svg"
 width="700.000000pt" height="700.000000pt" viewBox="0 0 700.000000 700.000000"
 preserveAspectRatio="xMidYMid meet">
<metadata>
Created by potrace 1.14, written by Peter Selinger 2001-2017
</metadata>
<g transform="translate(0.000000,700.000000) scale(0.100000,-0.100000)"
fill="#000000" stroke="none">
<path d="M6538 6544 c-15 -8 -45 -45 -67 -82 -197 -336 -493 -579 -848 -696
-45 -15 -124 -37 -175 -48 -90 -21 -127 -22 -1018 -28 -997 -7 -998 -7 -1250
-64 -171 -39 -336 -98 -508 -181 -488 -237 -870 -616 -1107 -1099 -70 -141
-140 -314 -132 -322 2 -3 44 14 93 37 296 137 595 226 944 281 142 22 160 23
956 23 l811 0 39 -27 c63 -44 88 -90 92 -168 3 -53 0 -75 -16 -107 -27 -51
-82 -99 -129 -113 -24 -6 -307 -11 -778 -14 -797 -3 -817 -5 -1093 -61 -765
-158 -1427 -609 -1868 -1271 -103 -155 -246 -441 -309 -619 -126 -350 -181
-703 -173 -1110 3 -181 4 -193 29 -245 94 -198 350 -253 513 -109 28 25 58 66
78 106 l33 67 6 280 c8 302 18 386 70 590 78 300 207 564 402 821 58 76 243
275 256 275 3 0 15 -30 25 -67 52 -187 180 -461 297 -636 402 -600 1023 -981
1737 -1066 196 -24 516 -13 737 25 1141 195 2126 1126 2568 2430 326 960 328
2041 5 3012 -40 122 -56 157 -80 177 -34 29 -96 33 -140 9z"/>
</g>
</svg>
